# xmcd
#
# Track frame offsets:
#	165
#	13406
#	26252
#	48586
#	72686
#	92862
#	107573
#	125951
#	139540
#	161896
#
# Disc length: 2361 seconds
#
# Revision: 0
# Processed by: cddbd v1.5.1PL0 Copyright (c) Steve Scherf et al.
# Submitted via: dBpowerAMP V4.0
#
DISCID=9309370a
DTITLE=Steve Vonderharr - From the Shadows
DYEAR=2003
DGENRE=Blues
TTITLE0=Juke
TTITLE1=Cost of Your Love
TTITLE2=Minor Mother
TTITLE3=Messin With My Bread
TTITLE4=My Party Song
TTITLE5=Boyz Will Be Boyz
TTITLE6=Mellow Down Easy
TTITLE7=It's Too Late Brother
TTITLE8=Big Town Playboy
TTITLE9=Blue Midnight
EXTD=Steve Vonderharr
EXTT0=
EXTT1=
EXTT2=
EXTT3=
EXTT4=
EXTT5=
EXTT6=
EXTT7=
EXTT8=
EXTT9=
PLAYORDER=
